<svg width="50" height="50" viewBox="0 0 50 50" fill="none" xmlns="http://www.w3.org/2000/svg">
<g clip-path="url(#clip0_27_34)">
<rect width="50" height="50" fill="#FFF7D1"/>
<path d="M45.824 11.1399H42.8107L39.91 4.85079C39.6849 4.36317 39.1848 4.03809 38.6472 4.03809H25.2188C24.6812 4.03809 24.181 4.35066 23.956 4.85079L21.0553 11.1399H14.8162V7.80153C14.8162 7.03884 14.191 6.41368 13.4284 6.41368H6.27657C5.51388 6.41368 4.88872 7.03884 4.88872 7.80153V11.1399H4.16354C1.86297 11.1399 0 13.0153 0 15.3034V41.7975C0 44.0981 1.87547 45.9611 4.16354 45.9611H45.8365C48.137 45.9611 50 44.0856 50 41.7975V15.3034C49.9875 13.0153 48.112 11.1399 45.824 11.1399ZM26.1065 6.82628H37.7594L39.7474 11.1399H24.106L26.1065 6.82628ZM7.65191 9.18937H12.028V11.1399H7.65191V9.18937ZM45.824 43.1854H4.13853C3.37584 43.1854 2.75069 42.5602 2.75069 41.7975V28.3817H4.91373C5.67642 28.3817 6.30158 27.7565 6.30158 26.9938C6.30158 26.2311 5.67642 25.606 4.91373 25.606H2.75069V22.8303H7.68942C8.45211 22.8303 9.07727 22.2051 9.07727 21.4424C9.07727 20.6797 8.45211 20.0546 7.68942 20.0546H2.75069V15.3159C2.75069 14.5532 3.37584 13.9281 4.13853 13.9281H45.8115C46.5741 13.9281 47.1993 14.5532 47.1993 15.3159V41.7975H47.2118C47.2118 42.5602 46.5866 43.1854 45.824 43.1854Z" fill="black"/>
<path d="M31.933 16.3545C25.2063 16.3545 19.73 21.8309 19.73 28.5575C19.73 35.2842 25.2063 40.7606 31.933 40.7606C38.6597 40.7606 44.1361 35.2842 44.1361 28.5575C44.1236 21.8309 38.6472 16.3545 31.933 16.3545ZM31.933 37.9724C26.7442 37.9724 22.5182 33.7463 22.5182 28.5575C22.5182 23.3687 26.7442 19.1427 31.933 19.1427C37.1218 19.1427 41.3479 23.3687 41.3479 28.5575C41.3479 33.7463 37.1218 37.9724 31.933 37.9724Z" fill="black"/>
<path d="M31.9331 21.918C28.2697 21.918 25.2939 24.8937 25.2939 28.5571C25.2939 32.2205 28.2697 35.1963 31.9331 35.1963C35.5965 35.1963 38.5723 32.2205 38.5723 28.5571C38.5723 24.8937 35.584 21.918 31.9331 21.918ZM31.9331 32.4206C29.8076 32.4206 28.0696 30.6827 28.0696 28.5571C28.0696 26.4316 29.8076 24.6937 31.9331 24.6937C34.0586 24.6937 35.7966 26.4316 35.7966 28.5571C35.7966 30.6827 34.0586 32.4206 31.9331 32.4206Z" fill="black"/>
<path d="M44.236 15.9785H42.9982C42.2355 15.9785 41.6104 16.6037 41.6104 17.3664C41.6104 18.1291 42.2355 18.7542 42.9982 18.7542H44.236C44.9987 18.7542 45.6239 18.1291 45.6239 17.3664C45.6239 16.6037 45.0112 15.9785 44.236 15.9785Z" fill="black"/>
<path d="M14.6535 17.3545C13.8908 17.3545 13.2656 17.9796 13.2656 18.7423V38.3597C13.2656 39.1224 13.8908 39.7476 14.6535 39.7476C15.4162 39.7476 16.0413 39.1224 16.0413 38.3597V18.7423C16.0413 17.9796 15.4162 17.3545 14.6535 17.3545Z" fill="black"/>
</g>
<defs>
<clipPath id="clip0_27_34">
<rect width="50" height="50" fill="white"/>
</clipPath>
</defs>
</svg>
